<?xml version="1.0" encoding="utf-8"?>
<!-- Generator: Adobe Illustrator 16.0.0, SVG Export Plug-In . SVG Version: 6.00 Build 0)  -->
<!DOCTYPE svg PUBLIC "-//W3C//DTD SVG 1.1//EN" "http://www.w3.org/Graphics/SVG/1.1/DTD/svg11.dtd">
<svg version="1.1" id="Capa_1" xmlns="http://www.w3.org/2000/svg" xmlns:xlink="http://www.w3.org/1999/xlink" x="0px" y="0px"
	 width="425.2px" height="42.52px" viewBox="0 0 425.2 42.52" enable-background="new 0 0 425.2 42.52" xml:space="preserve">
<g>
	<g>
		<path fill="#4C4C4C" d="M386.582,34.514c-16.409-0.297-48.564-0.518-64.98-0.497c-34.979,0.044-69.945,0.25-104.922,0.799
			c-70.125,1.1-96.919,0.44-167.032-1.42c-2.142-0.057-2.137,3.262,0,3.318c71.208,1.889,99.082,2.485,170.305,1.369
			c36.079-0.566,72.153-0.74,108.236-0.752c14.218-0.004,44.181,0.24,58.394,0.495V34.514z"/>
	</g>
	<path fill="#4C4C4C" d="M407.094,24.346c2.248,0.841,4.427-1.145,5.789-3.432c0.205-0.346,0.211-0.823,0.041-1.204
		c0.047-0.073,0.101-0.117,0.144-0.202c1.052-2.146,4.574-3.448,4.863-5.895c0.273-2.304-3.213-4.53-4.495-6.085
		c-1.392-1.69-2.957-3.75-5.246-3.992c-2.374-0.253-5.173,3.036-6.779,4.732c-0.255-0.142-0.51-0.251-0.758-0.303
		c-2.651-0.561-5.222,2.795-4.506,5.339c0.188,0.669,0.463,1.203,0.801,1.687c-0.079,0.055-0.16,0.085-0.236,0.162
		c-1.918,1.994-3.726,4.085-5.643,6.079c-1.396,1.448-3.637,2.805-4.566,4.625c-1.452,2.837-1.348,7.519-1.014,10.621
		c0.066,0.617,0.378,1.171,1.025,1.331c2.289,0.562,4.514-0.68,6.829-0.902c1.992-0.19,3.659-1.266,5.034-2.623
		c2.293-2.263,4.538-5.131,6.572-7.645C405.566,25.876,406.442,25.164,407.094,24.346z M408.901,6.734
		c1.189,1.096,2.132,2.33,3.186,3.545c0.459,0.579,0.968,1.108,1.53,1.587c1.159,1.103,1.941,0.926,0.688,2.212
		c-1.084,1.112-2.133,2.383-3.224,3.519c-0.597-0.469-1.332-1.228-1.602-1.454c-1.243-1.049-2.398-2.107-3.543-3.27
		c-0.644-0.653-1.509-1.796-2.445-2.817C404.808,8.613,407.603,5.538,408.901,6.734z M398.656,17.095
		c0.083-0.087,0.119-0.184,0.174-0.277c0.833,0.625,1.617,1.335,2.382,2.069c-1.534,1.541-2.903,3.159-4.344,4.785
		c-1.197,1.353-2.554,2.443-3.592,3.889c-1.025-0.59-2.063-1.15-3.084-1.763C392.876,22.818,395.877,19.983,398.656,17.095z
		 M394.425,33.628c-0.973,0.217-2.321,0.712-3.668,1.099c0.344-0.736,0.297-1.539-0.417-2.096c-0.512-0.396-1.067-0.451-1.562-0.306
		c-0.068-0.026-0.113-0.07-0.189-0.091c-0.146-0.044-0.287-0.051-0.425-0.044c0.074-1.42,0.251-2.866,0.61-4.037
		c1.246,0.753,2.555,1.341,3.782,2.146c0.614,0.402,1.222,0.793,1.785,1.272c0.474,0.402,0.682,1.037,0.965,1.604
		C394.995,33.394,394.696,33.567,394.425,33.628z M396.933,30.378c-0.327-0.542-0.841-0.948-1.358-1.326
		c0.903-1.28,2.147-2.318,3.239-3.437c1.501-1.543,2.815-3.246,4.342-4.783c0.593,0.621,1.18,1.242,1.766,1.848
		c-0.384,0.468-1.015,0.829-1.353,1.274c-1.446,1.903-3.161,3.549-4.688,5.394c-0.379,0.457-0.925,1.15-1.527,1.849
		C397.222,30.924,397.095,30.647,396.933,30.378z M407.542,21.441c-1.375-1.392-2.767-2.771-4.153-4.152
		c-1.238-1.238-2.468-2.293-3.839-3.377c-0.697-1.379-0.614-2.469,0.247-3.272c0.905,0.732,1.711,1.67,2.531,2.492
		c0.895,0.894,4.872,5.827,7.854,7.129c0.034,0.146,0.074,0.291,0.172,0.443C409.447,19.306,408.889,22.798,407.542,21.441z"/>
	<path fill="#4C4C4C" d="M40.364,32.364c-3.463-0.015-6.923-0.152-10.381,0.115c-2.728,0.212-2.749,4.487,0,4.273
		c3.458-0.27,6.917-0.13,10.381-0.118C43.119,36.647,43.118,32.374,40.364,32.364z"/>
	<path fill="#4C4C4C" d="M20.302,32.714h-1.166c-2.755,0-2.755,4.271,0,4.271h1.166C23.058,36.985,23.058,32.714,20.302,32.714z"/>
	<path fill="#4C4C4C" d="M8.989,32.831c-2.755,0-2.755,4.271,0,4.271C11.744,37.103,11.744,32.831,8.989,32.831z"/>
</g>
</svg>
