<?xml version="1.0" encoding="utf-8"?>
<!-- Generator: Adobe Illustrator 16.0.0, SVG Export Plug-In . SVG Version: 6.00 Build 0)  -->
<!DOCTYPE svg PUBLIC "-//W3C//DTD SVG 1.1//EN" "http://www.w3.org/Graphics/SVG/1.1/DTD/svg11.dtd">
<svg version="1.1" id="Capa_1" xmlns="http://www.w3.org/2000/svg" xmlns:xlink="http://www.w3.org/1999/xlink" x="0px" y="0px"
	 width="340.158px" height="85.039px" viewBox="0 0 340.158 85.039" enable-background="new 0 0 340.158 85.039"
	 xml:space="preserve">
<g>
	<path fill="#DDE3DF" stroke="#021225" stroke-miterlimit="10" d="M21.459,44.169c-0.338-2.15-0.247-4.235,0.272-6.256
		c0.52-2.02,1.368-3.839,2.547-5.457c1.177-1.617,2.646-2.994,4.406-4.13c1.76-1.135,3.715-1.873,5.866-2.21
		c1.375-0.216,2.693-0.247,3.951-0.093c1.258,0.155,2.372,0.377,3.343,0.665c1.149,0.305,2.224,0.686,3.221,1.145
		c1.261,0.728,2.304,1.479,3.131,2.252c0.826,0.773,1.338,1.783,1.534,3.031c0.264,1.677-0.021,3.087-0.855,4.232
		c-0.833,1.145-2.111,1.851-3.83,2.121c-1.291,0.203-2.531,0.024-3.72-0.538c-0.521-0.226-1.254-0.475-2.199-0.743
		c-0.946-0.271-1.851-0.338-2.709-0.203c-0.982,0.198-1.736,0.725-2.264,1.578c-0.526,0.854-0.716,1.756-0.567,2.699
		c0.155,0.99,0.613,1.801,1.373,2.429c0.761,0.631,1.638,0.89,2.634,0.776c0.859-0.135,1.699-0.478,2.517-1.023
		c0.816-0.547,1.438-1.008,1.864-1.384c0.959-0.899,2.085-1.451,3.375-1.654c1.72-0.271,3.152,0.01,4.298,0.845
		c1.144,0.834,1.849,2.089,2.112,3.765c0.196,1.249,0.048,2.483-0.442,3.706c-0.491,1.225-1.238,2.288-2.241,3.195
		c-0.864,0.664-1.802,1.296-2.809,1.896c-0.892,0.493-1.905,0.982-3.041,1.47c-1.136,0.486-2.391,0.837-3.767,1.054
		c-2.15,0.339-4.237,0.238-6.261-0.305c-2.025-0.541-3.846-1.398-5.463-2.578c-1.617-1.176-2.983-2.648-4.097-4.412
		C22.524,48.277,21.798,46.32,21.459,44.169z"/>
	<path fill="#DDE3DF" stroke="#021225" stroke-miterlimit="10" d="M82.425,50.109c0,1.041-0.271,1.918-0.81,2.63
		c-0.541,0.714-1.331,1.07-2.371,1.07c-0.771,0-1.533-0.279-2.284-0.838c-0.752-0.559-1.263-1.165-1.532-1.821
		c-1.195,0.888-2.516,1.552-3.961,1.994c-1.445,0.443-2.843,0.665-4.191,0.665c-1.929,0-3.683-0.365-5.263-1.099
		c-1.581-0.731-2.929-1.735-4.047-3.007c-1.118-1.272-1.985-2.756-2.603-4.453c-0.616-1.694-0.925-3.506-0.925-5.435v-8.615
		c0-0.732,0.145-1.426,0.434-2.081s0.675-1.224,1.156-1.706c0.482-0.482,1.05-0.868,1.706-1.157c0.655-0.289,1.35-0.433,2.082-0.433
		c0.731,0,1.425,0.145,2.081,0.433c0.655,0.29,1.223,0.675,1.706,1.157c0.481,0.481,0.867,1.05,1.156,1.706s0.434,1.349,0.434,2.081
		l0.115,8.615c0,0.888,0.289,1.668,0.868,2.343c0.578,0.674,1.31,1.011,2.196,1.011s1.639-0.337,2.256-1.011
		c0.616-0.675,0.925-1.455,0.925-2.343l0.116-8.615c0-0.732,0.144-1.426,0.434-2.081c0.289-0.655,0.674-1.224,1.156-1.706
		c0.481-0.482,1.05-0.868,1.706-1.157c0.654-0.289,1.348-0.433,2.081-0.433c0.731,0,1.426,0.145,2.082,0.433
		c0.654,0.29,1.223,0.675,1.706,1.157c0.48,0.481,0.867,1.05,1.155,1.706c0.29,0.655,0.435,1.349,0.435,2.081v8.615V50.109z"/>
	<path fill="#DDE3DF" stroke="#021225" stroke-miterlimit="10" d="M101.322,37.364c-0.141-0.678-0.654-1.025-1.541-1.043
		c-0.887-0.017-1.472,0.309-1.754,0.979c-0.283,0.668-0.434,1.445-0.451,2.332l-0.285,8.613c-0.015,0.732-0.173,1.423-0.475,2.072
		c-0.302,0.65-0.699,1.212-1.19,1.683c-0.492,0.473-1.067,0.846-1.728,1.123c-0.662,0.275-1.358,0.406-2.09,0.393
		c-0.732-0.015-1.424-0.174-2.073-0.475c-0.649-0.304-1.21-0.699-1.683-1.189c-0.472-0.491-0.846-1.067-1.122-1.729
		c-0.276-0.661-0.407-1.357-0.393-2.09l0.372-18.904c0.021-1.041,0.308-1.912,0.861-2.614c0.554-0.702,1.352-1.043,2.392-1.023
		c0.771,0.015,1.526,0.31,2.267,0.883c0.741,0.574,1.239,1.191,1.497,1.852c1.211-0.863,2.352-1.506,3.421-1.928
		c1.068-0.421,2.276-0.62,3.626-0.593c1.58,0.031,2.905,0.298,3.976,0.801c1.068,0.504,2.096,1.189,3.082,2.056
		c1.173-0.824,2.419-1.465,3.739-1.921c1.319-0.456,2.653-0.671,4.002-0.644c1.928,0.038,3.616,0.438,5.067,1.198
		c1.449,0.762,2.653,1.788,3.611,3.079c0.958,1.292,1.66,2.791,2.108,4.495c0.448,1.705,0.653,3.521,0.615,5.448l-0.169,8.614
		c-0.016,0.733-0.173,1.424-0.475,2.073c-0.303,0.649-0.699,1.211-1.189,1.683c-0.493,0.473-1.068,0.847-1.729,1.123
		c-0.662,0.275-1.358,0.406-2.091,0.392c-0.732-0.014-1.423-0.172-2.071-0.474c-0.65-0.303-1.211-0.699-1.684-1.19
		c-0.473-0.49-0.847-1.066-1.122-1.728c-0.276-0.662-0.407-1.358-0.393-2.09L116.306,40c0.018-0.886-0.045-1.667-0.186-2.345
		s-0.654-1.025-1.54-1.043c-0.887-0.018-1.472,0.309-1.754,0.978c-0.284,0.669-0.434,1.446-0.451,2.333l-0.17,8.614
		c-0.015,0.733-0.173,1.424-0.475,2.073c-0.302,0.65-0.699,1.211-1.19,1.683c-0.491,0.473-1.066,0.847-1.728,1.123
		s-1.358,0.406-2.09,0.392c-0.732-0.014-1.424-0.172-2.072-0.474c-0.65-0.303-1.212-0.699-1.684-1.19
		c-0.473-0.49-0.846-1.066-1.122-1.728s-0.407-1.358-0.393-2.09l0.054-8.618C101.525,38.823,101.462,38.042,101.322,37.364z"/>
	<path fill="#DDE3DF" stroke="#021225" stroke-miterlimit="10" d="M130.274,29.89c-0.027-1.04,0.22-1.923,0.741-2.651
		c0.521-0.726,1.302-1.104,2.343-1.13c0.77-0.02,1.539,0.241,2.304,0.779c0.767,0.54,1.293,1.133,1.579,1.781
		c1.171-0.917,2.475-1.616,3.908-2.097c1.434-0.479,2.824-0.738,4.174-0.772c1.926-0.049,3.688,0.271,5.289,0.962
		c1.598,0.692,2.972,1.659,4.123,2.901c1.149,1.243,2.055,2.706,2.716,4.384c0.659,1.68,1.015,3.483,1.063,5.41
		c0.05,1.927-0.212,3.746-0.783,5.457c-0.573,1.712-1.402,3.218-2.486,4.519c-1.086,1.3-2.408,2.338-3.969,3.109
		c-1.562,0.775-3.306,1.185-5.231,1.234c-0.31,0.009-0.695-0.03-1.161-0.115c-0.464-0.083-0.91-0.188-1.338-0.313
		c-0.428-0.123-0.827-0.285-1.198-0.489c-0.372-0.201-0.618-0.417-0.739-0.646l0.132,5.146c0.02,0.729-0.106,1.427-0.38,2.091
		c-0.271,0.662-0.643,1.239-1.111,1.735c-0.471,0.494-1.028,0.895-1.676,1.199c-0.647,0.308-1.338,0.47-2.069,0.488
		c-0.732,0.02-1.43-0.107-2.093-0.382c-0.663-0.271-1.24-0.641-1.734-1.11c-0.495-0.471-0.895-1.028-1.2-1.676
		c-0.306-0.649-0.468-1.339-0.487-2.069L130.274,29.89z M147.648,39.737c-0.022-0.886-0.332-1.659-0.927-2.317
		c-0.596-0.66-1.337-0.978-2.223-0.956c-0.887,0.023-1.63,0.38-2.229,1.07c-0.6,0.69-0.887,1.478-0.864,2.364
		c0.023,0.887,0.352,1.659,0.985,2.317c0.633,0.658,1.394,0.976,2.279,0.954c0.888-0.023,1.61-0.38,2.172-1.068
		C147.403,41.412,147.67,40.624,147.648,39.737z"/>
	<path fill="#DDE3DF" stroke="#021225" stroke-miterlimit="10" d="M162.96,22.188c0.065-1.502,0.641-2.759,1.727-3.774
		c1.086-1.013,2.398-1.487,3.939-1.42c0.731,0.032,1.427,0.206,2.09,0.524c0.659,0.318,1.221,0.729,1.682,1.23
		c0.461,0.503,0.821,1.097,1.08,1.784c0.26,0.687,0.374,1.396,0.343,2.127l-1.127,25.938c-0.065,1.541-0.653,2.808-1.757,3.802
		c-1.104,0.993-2.406,1.459-3.908,1.394c-1.541-0.067-2.808-0.643-3.803-1.729c-0.994-1.085-1.458-2.396-1.392-3.938L162.96,22.188z
		"/>
	<path fill="#DDE3DF" stroke="#021225" stroke-miterlimit="10" d="M204.198,39.239c0,0.5-0.116,1.002-0.348,1.503
		c-0.23,0.501-0.559,0.935-0.982,1.301c-0.425,0.367-0.916,0.664-1.475,0.896c-0.559,0.23-1.147,0.347-1.764,0.347
		c-1.041,0.04-2.014,0.049-2.92,0.03c-0.906-0.02-1.813-0.039-2.717-0.059c-0.907-0.019-1.851-0.037-2.834-0.057
		s-2.072-0.03-3.267-0.03c0.191,0.501,0.462,0.859,0.811,1.072c0.346,0.21,0.846,0.316,1.501,0.316c0.426,0,0.811-0.047,1.157-0.144
		c0.349-0.096,0.702-0.204,1.069-0.318c0.366-0.115,0.752-0.221,1.157-0.318c0.405-0.096,0.877-0.144,1.417-0.144
		c1.31,0,2.456,0.424,3.44,1.272c0.981,0.847,1.474,1.927,1.474,3.236c0,0.887-0.28,1.716-0.838,2.486
		c-0.56,0.773-1.225,1.351-1.995,1.735c-0.964,0.501-2.063,0.866-3.295,1.099c-1.235,0.231-2.43,0.347-3.587,0.347
		c-1.926,0-3.738-0.365-5.435-1.099c-1.697-0.731-3.18-1.735-4.453-3.007c-1.271-1.272-2.273-2.756-3.006-4.453
		c-0.732-1.694-1.098-3.506-1.098-5.435c0-1.927,0.365-3.738,1.098-5.435c0.732-1.695,1.735-3.181,3.006-4.453
		c1.273-1.271,2.756-2.274,4.453-3.007c1.696-0.732,3.509-1.098,5.435-1.098c1.927,0,3.739,0.338,5.437,1.012
		c1.695,0.674,3.181,1.609,4.451,2.804c1.272,1.195,2.275,2.611,3.008,4.249C203.831,35.528,204.198,37.311,204.198,39.239z
		 M190.204,34.787c-0.539,0-1.012,0.136-1.416,0.403c-0.404,0.271-0.664,0.618-0.78,1.042h4.394
		c-0.077-0.424-0.338-0.771-0.779-1.042C191.177,34.922,190.706,34.787,190.204,34.787z"/>
	<path fill="#E5B9B2" stroke="#021225" stroke-miterlimit="10" d="M229.429,29.541c0.667-0.61,1.414-1.049,2.245-1.316
		c0.83-0.268,1.67-0.37,2.521-0.311c0.853,0.062,1.67,0.29,2.449,0.685c0.78,0.396,1.478,0.951,2.091,1.663
		c1.18,1.43,1.696,2.986,1.549,4.667s-0.935,3.135-2.359,4.362l-3.949,3.303l6.418,8.263c0.609,0.666,1.071,1.413,1.388,2.242
		c0.313,0.825,0.466,1.664,0.45,2.514c-0.015,0.847-0.197,1.674-0.541,2.474c-0.347,0.8-0.879,1.507-1.591,2.121
		c-1.38,1.222-2.934,1.762-4.662,1.618c-1.731-0.143-3.205-0.906-4.429-2.284l-6.743-8.877c-1.201,1.022-1.963,1.649-2.276,1.884
		c-0.314,0.231-0.537,0.4-0.671,0.503l0.212,3.167c0.124,1.875-0.417,3.491-1.621,4.844c-1.207,1.352-2.723,2.089-4.553,2.213
		c-1.875,0.124-3.49-0.403-4.842-1.586c-1.35-1.182-2.089-2.712-2.214-4.588l-2.111-31.591c-0.122-1.83,0.406-3.431,1.586-4.807
		c1.183-1.374,2.711-2.124,4.587-2.249c0.89-0.06,1.759,0.058,2.603,0.355c0.844,0.297,1.579,0.719,2.204,1.266
		c0.627,0.548,1.144,1.221,1.55,2.018c0.406,0.798,0.64,1.642,0.7,2.533l0.84,12.594L229.429,29.541z"/>
	<path fill="#F5DF93" stroke="#021225" stroke-miterlimit="10" d="M246.781,18.133c0-1.503,0.52-2.766,1.561-3.787
		s2.333-1.533,3.874-1.533c1.504,0,2.784,0.511,3.846,1.533c1.06,1.021,1.59,2.284,1.59,3.787c0,1.542-0.53,2.814-1.59,3.816
		c-1.062,1.003-2.342,1.503-3.846,1.503c-1.541,0-2.833-0.5-3.874-1.503C247.3,20.948,246.781,19.676,246.781,18.133z
		 M246.781,31.258c0-1.503,0.52-2.784,1.561-3.844c1.041-1.06,2.333-1.59,3.874-1.59c0.732,0,1.436,0.145,2.11,0.433
		c0.674,0.29,1.253,0.675,1.735,1.157c0.48,0.481,0.867,1.061,1.155,1.734c0.29,0.675,0.435,1.379,0.435,2.11v17.117
		c0,1.542-0.53,2.832-1.59,3.873c-1.062,1.041-2.342,1.562-3.846,1.562c-1.541,0-2.833-0.521-3.874-1.562s-1.561-2.331-1.561-3.873
		V31.258z"/>
	<path fill="#AECDCD" stroke="#021225" stroke-miterlimit="10" d="M260.657,31.085c0-1.541,0.52-2.813,1.561-3.816
		c1.041-1.002,2.332-1.503,3.875-1.503c0.309,0,0.539,0.02,0.694,0.058v-3.412c0-1.503,0.52-2.785,1.561-3.845
		c1.041-1.06,2.332-1.59,3.873-1.59c0.733,0,1.437,0.145,2.111,0.434c0.675,0.289,1.252,0.675,1.735,1.156
		c0.48,0.482,0.866,1.061,1.155,1.735c0.29,0.675,0.434,1.378,0.434,2.11v3.412c0.154-0.038,0.405-0.058,0.752-0.058
		c1.504,0,2.785,0.5,3.846,1.503c1.059,1.003,1.589,2.275,1.589,3.816c0,1.503-0.53,2.767-1.589,3.788
		c-1.061,1.022-2.342,1.532-3.846,1.532h-0.752v11.97c0,1.542-0.53,2.832-1.589,3.873c-1.061,1.041-2.342,1.562-3.847,1.562
		c-1.541,0-2.832-0.521-3.873-1.562s-1.561-2.331-1.561-3.873v-11.97h-0.694c-1.543,0-2.834-0.51-3.875-1.532
		C261.176,33.852,260.657,32.588,260.657,31.085z"/>
	<path fill="#E7C0C8" stroke="#021225" stroke-miterlimit="10" d="M285.136,42.918c0.625-0.688,1.285-1.151,1.98-1.394
		c0.697-0.243,1.345-0.361,1.943-0.354c0.597,0.007,1.135,0.081,1.616,0.221c0.479,0.142,0.836,0.271,1.064,0.39
		c0.498,0.235,1.043,0.618,1.635,1.146c0.592,0.529,1.174,1.037,1.746,1.524c0.573,0.49,1.107,0.861,1.606,1.118
		c0.496,0.257,0.902,0.232,1.215-0.072c0.234-0.229,0.179-0.508-0.163-0.841c-0.343-0.33-0.65-0.575-0.917-0.733
		c-1.111-0.629-2.05-1.132-2.815-1.507c-0.768-0.375-1.438-0.712-2.013-1.008c-0.575-0.296-1.121-0.58-1.639-0.857
		c-0.516-0.274-1.099-0.649-1.75-1.118c-1.301-0.901-2.123-2.193-2.47-3.874c-0.349-1.682-0.066-3.442,0.843-5.283
		c0.828-1.646,2.065-2.905,3.717-3.773c1.646-0.866,3.992-1.089,7.033-0.668c1,0.127,2.2,0.431,3.603,0.91
		c1.401,0.479,2.676,1.101,3.824,1.866c1.146,0.765,2.032,1.682,2.656,2.75c0.623,1.067,0.676,2.292,0.159,3.673
		c-0.318,0.846-0.778,1.476-1.381,1.892c-0.604,0.418-1.262,0.66-1.975,0.729c-0.716,0.07-1.427,0.003-2.137-0.198
		c-0.712-0.201-1.315-0.515-1.813-0.946c-0.648-0.547-1.249-1.075-1.801-1.583c-0.554-0.507-1.119-0.783-1.697-0.829
		c-0.309-0.041-0.578,0.05-0.813,0.279c-0.233,0.229-0.121,0.501,0.338,0.813c1.07,0.67,2.019,1.209,2.843,1.624
		s1.696,0.84,2.616,1.273c1.304,0.594,2.472,1.282,3.504,2.066c1.03,0.782,1.86,1.649,2.484,2.602
		c0.625,0.953,0.998,1.969,1.122,3.049c0.12,1.081-0.114,2.234-0.707,3.461c-0.555,1.15-1.315,2.047-2.286,2.691
		c-0.973,0.645-2.019,1.112-3.14,1.409c-1.122,0.295-2.27,0.464-3.445,0.509c-1.178,0.044-2.228,0.021-3.152-0.066
		c-1.039-0.089-2.077-0.292-3.114-0.615c-1.038-0.32-2.008-0.677-2.908-1.074c-0.901-0.395-1.697-0.782-2.386-1.156
		c-0.689-0.374-1.188-0.678-1.494-0.913c-0.421-0.273-0.84-0.665-1.258-1.171s-0.749-1.069-0.992-1.688
		c-0.243-0.62-0.332-1.297-0.266-2.028C284.222,44.431,284.549,43.683,285.136,42.918z"/>
	<g opacity="0.5">
		<g>
			<path fill="#FFFFFF" d="M27.893,30.298c-3.802,2.925-5.482,7.762-4.577,12.451c0.36,1.869,3.207,1.076,2.848-0.785
				c-0.627-3.25,0.548-7.061,3.22-9.115C30.871,31.705,29.403,29.137,27.893,30.298L27.893,30.298z"/>
		</g>
	</g>
	<g opacity="0.5">
		<g>
			<path fill="#FFFFFF" d="M58.484,32.802c0.135-0.813,0.298-1.734,0.832-2.295c0.533-0.561,1.497-0.834,2.258-1.09
				c1.589-0.536,0.908-3.063-0.695-2.522c-1.225,0.413-2.459,0.857-3.412,1.763c-0.936,0.891-1.299,2.219-1.504,3.449
				C55.687,33.756,58.208,34.462,58.484,32.802L58.484,32.802z"/>
		</g>
	</g>
	<g opacity="0.5">
		<g>
			<path fill="#FFFFFF" d="M75.419,32.694c0.177-0.803,0.396-1.655,0.925-2.18c0.518-0.515,1.604-0.772,2.384-0.989
				c1.622-0.453,0.933-2.977-0.695-2.522c-1.237,0.345-2.422,0.742-3.428,1.563c-1.01,0.825-1.439,2.212-1.708,3.433
				C72.534,33.642,75.055,34.341,75.419,32.694L75.419,32.694z"/>
		</g>
	</g>
	<g opacity="0.5">
		<g>
			<path fill="#FFFFFF" d="M94.496,32.727c1.239-0.336,2.19-1.286,3.238-1.997c3.317-2.251,7.835,1.315,10.884,2.586
				c0.382,0.159,1.016-0.016,1.272-0.336c2.869-3.582,8.451-2.433,11.344,0.26c1.233,1.147,3.086-0.698,1.85-1.85
				c-4.041-3.761-8.484-4.166-13.467-1.709c-1.722,0.849-2.03,0.346-3.935-0.636c-1.442-0.743-2.862-1.223-4.452-1.548
				c-3.389-0.692-4.608,1.94-7.43,2.707C92.174,30.646,92.865,33.169,94.496,32.727L94.496,32.727z"/>
		</g>
	</g>
	<g opacity="0.5">
		<g>
			<path fill="#FFFFFF" d="M88.237,44.168c-0.034,2.228-0.99,6.5,1.686,7.651c1.532,0.659,2.866-1.593,1.32-2.258
				c-0.68-0.293-0.541-1.592-0.543-2.197c-0.005-1.068,0.137-2.13,0.153-3.196C90.877,42.48,88.262,42.483,88.237,44.168
				L88.237,44.168z"/>
		</g>
	</g>
	<g opacity="0.5">
		<g>
			<path fill="#FFFFFF" d="M56.83,45.267c1.643,2.604,3.664,5.183,6.86,5.79c1.648,0.313,2.351-2.207,0.695-2.521
				c-2.529-0.481-4-2.534-5.296-4.589C58.192,42.524,55.928,43.835,56.83,45.267L56.83,45.267z"/>
		</g>
	</g>
	<g opacity="0.5">
		<g>
			<path fill="#FFFFFF" d="M139.657,32.638c3.078-2.493,6.323-2.76,9.958-1.288c1.564,0.633,2.238-1.898,0.695-2.522
				c-4.559-1.846-8.72-1.104-12.503,1.96C136.496,31.85,138.359,33.689,139.657,32.638L139.657,32.638z"/>
		</g>
	</g>
	<g>
		<g>
			<path fill="#FFFFFF" d="M164.855,25.861c-0.161,3.703-0.322,7.407-0.482,11.11c-0.073,1.687,2.542,1.68,2.615,0
				c0.161-3.703,0.322-7.407,0.482-11.11C167.543,24.174,164.928,24.181,164.855,25.861L164.855,25.861z"/>
		</g>
	</g>
	<g opacity="0.5">
		<g>
			<path fill="#FFFFFF" d="M183.75,32.991c1.844-1.335,3.808-2.314,5.998-2.95c2.438-0.708,5.134,0.972,7.374,1.748
				c1.599,0.553,2.279-1.974,0.695-2.522c-2.435-0.843-5.274-2.529-7.96-1.928c-2.701,0.604-5.188,1.772-7.428,3.394
				C181.079,31.711,182.381,33.982,183.75,32.991L183.75,32.991z"/>
		</g>
	</g>
	<g opacity="0.5">
		<g>
			<path fill="#FFFFFF" d="M210.334,25.678c1.195-1.45,3.026-2.445,4.922-1.889c1.622,0.476,2.311-2.049,0.695-2.522
				c-2.736-0.802-5.693,0.411-7.467,2.562C207.421,25.119,209.26,26.98,210.334,25.678L210.334,25.678z"/>
		</g>
	</g>
	<g opacity="0.5">
		<g>
			<path fill="#FFFFFF" d="M210.246,52.333c-0.27,1.947-0.203,3.816,0.731,5.588c1.019,1.928,3.16,2.902,5.198,3.296
				c1.647,0.318,2.351-2.202,0.695-2.521c-3.077-0.595-4.534-2.548-4.104-5.667C212.996,51.38,210.475,50.668,210.246,52.333
				L210.246,52.333z"/>
		</g>
	</g>
	<g opacity="0.5">
		<g>
			<path fill="#FFFFFF" d="M251.964,16.089c0.406,0.27,0.793,0.519,1.091,0.774c0.209,0.179,0.383,0.363,0.477,0.5
				c-0.002-0.003,0.184,0.386,0.114,0.196c0.115,0.314,0.029-0.127,0.044,0.217c0.068,1.681,2.685,1.687,2.615,0
				c-0.078-1.901-1.57-2.984-3.021-3.946c-0.595-0.395-1.444-0.119-1.789,0.469C251.12,14.941,251.372,15.696,251.964,16.089
				L251.964,16.089z"/>
		</g>
	</g>
	<g opacity="0.5">
		<g>
			<path fill="#FFFFFF" d="M248.061,34.084c0.335,4.521,0.134,9.052,0.937,13.544c0.296,1.658,2.816,0.953,2.521-0.695
				c-0.759-4.249-0.525-8.572-0.843-12.849C250.552,32.413,247.936,32.401,248.061,34.084L248.061,34.084z"/>
		</g>
	</g>
	<g opacity="0.5">
		<g>
			<path fill="#FFFFFF" d="M263.271,27.823c-0.833,0.952-1.596,2.157-1.265,3.483c0.307,1.228,1.27,2.035,2.27,2.723
				c1.395,0.958,2.7-1.31,1.32-2.259c-0.354-0.243-0.868-0.558-1.024-0.985c-0.137-0.373,0.319-0.85,0.549-1.112
				C266.227,28.41,264.384,26.552,263.271,27.823L263.271,27.823z"/>
		</g>
	</g>
	<g opacity="0.5">
		<g>
			<path fill="#FFFFFF" d="M289.899,32.802c0.222-2.404,2.546-3.302,4.677-3.218c1.688,0.067,1.681-2.548,0-2.615
				c-3.697-0.147-6.939,2.002-7.292,5.833C287.128,34.482,289.746,34.467,289.899,32.802L289.899,32.802z"/>
		</g>
	</g>
	<g opacity="0.5">
		<g>
			<path fill="#FFFFFF" d="M287.797,43.089c-3.071,1.437-1.343,5.094,0.689,6.566c0.579,0.419,1.456,0.101,1.789-0.469
				c0.388-0.66,0.107-1.372-0.469-1.789c-0.438-0.316-0.741-0.786-0.98-1.26c-0.245-0.484-0.146-0.585,0.291-0.79
				C290.644,44.634,289.315,42.379,287.797,43.089L287.797,43.089z"/>
		</g>
	</g>
	<g opacity="0.5">
		<g>
			<path fill="#FFFFFF" d="M268.521,39.274c0,2.57,0,5.14,0,7.71c0,1.687,2.615,1.687,2.615,0c0-2.57,0-5.14,0-7.71
				C271.136,37.587,268.521,37.587,268.521,39.274L268.521,39.274z"/>
		</g>
	</g>
	<g opacity="0.5">
		<g>
			<path fill="#FFFFFF" d="M167.089,26.42c0.173-0.85,0.477-1.679,0.836-2.467c0.23-0.503,0.502-0.985,0.813-1.443
				c0.086-0.126,0.201-0.232,0.308-0.34c0.281-0.28-0.333-0.025-0.006,0.005c1.68,0.154,1.665-2.463,0-2.615
				c-2.604-0.239-4.079,4.223-4.474,6.165C164.231,27.371,166.752,28.072,167.089,26.42L167.089,26.42z"/>
		</g>
	</g>
	<g opacity="0.5">
		<g>
			<path fill="#FFFFFF" d="M233.086,31.696c1.67-0.396,3.334,2.151,3.388,3.596c0.062,1.681,2.678,1.688,2.615,0
				c-0.118-3.217-3.261-6.932-6.698-6.118C230.75,29.562,231.446,32.084,233.086,31.696L233.086,31.696z"/>
		</g>
	</g>
	<path fill="none" stroke="#021225" stroke-miterlimit="10" d="M217.154,62.811c0.509,0.204,0.648,0.45,0.424,0.741
		c-2.44,0.117-7.17-1.369-6.591,3.007c3.76,0.696,5.197-3.844,8.239-3.057c1.535,0.398,2.699,3.157,0.424,2.692
		c-1.209-0.246-1.749-2.994-2.496-3.729"/>
	<path fill="none" stroke="#021225" stroke-miterlimit="10" d="M216.514,63.254c15.997,24.91,83.187-11.884,102.384,5.941"/>
</g>
</svg>
